<mxfile host="app.diagrams.net" agent="Mozilla/5.0 (Windows NT 10.0; Win64; x64) AppleWebKit/537.36 (KHTML, like Gecko) Chrome/134.0.0.0 Safari/537.36 Edg/134.0.0.0" version="26.0.14">
  <diagram name="PÃ¡gina-1" id="nh3Sr4dBdeIbou2y9T9H">
    <mxGraphModel dx="1400" dy="759" grid="1" gridSize="10" guides="1" tooltips="1" connect="1" arrows="1" fold="1" page="1" pageScale="1" pageWidth="827" pageHeight="1169" math="0" shadow="0">
      <root>
        <mxCell id="0" />
        <mxCell id="1" parent="0" />
        <mxCell id="fdGbSLzudr2lG3SM0UwR-1" value="Clientes" style="swimlane;fontStyle=0;childLayout=stackLayout;horizontal=1;startSize=30;horizontalStack=0;resizeParent=1;resizeParentMax=0;resizeLast=0;collapsible=1;marginBottom=0;whiteSpace=wrap;html=1;" vertex="1" parent="1">
          <mxGeometry x="30" y="256" width="140" height="120" as="geometry" />
        </mxCell>
        <mxCell id="fdGbSLzudr2lG3SM0UwR-2" value="Id&lt;div&gt;Nombre&lt;/div&gt;" style="text;strokeColor=none;fillColor=none;align=left;verticalAlign=middle;spacingLeft=4;spacingRight=4;overflow=hidden;points=[[0,0.5],[1,0.5]];portConstraint=eastwest;rotatable=0;whiteSpace=wrap;html=1;" vertex="1" parent="fdGbSLzudr2lG3SM0UwR-1">
          <mxGeometry y="30" width="140" height="30" as="geometry" />
        </mxCell>
        <mxCell id="fdGbSLzudr2lG3SM0UwR-3" value="Direccion&lt;div&gt;Nit&lt;/div&gt;" style="text;strokeColor=none;fillColor=none;align=left;verticalAlign=middle;spacingLeft=4;spacingRight=4;overflow=hidden;points=[[0,0.5],[1,0.5]];portConstraint=eastwest;rotatable=0;whiteSpace=wrap;html=1;" vertex="1" parent="fdGbSLzudr2lG3SM0UwR-1">
          <mxGeometry y="60" width="140" height="30" as="geometry" />
        </mxCell>
        <mxCell id="fdGbSLzudr2lG3SM0UwR-4" value="CorreoElectronico&lt;div&gt;Telefono&lt;/div&gt;" style="text;strokeColor=none;fillColor=none;align=left;verticalAlign=middle;spacingLeft=4;spacingRight=4;overflow=hidden;points=[[0,0.5],[1,0.5]];portConstraint=eastwest;rotatable=0;whiteSpace=wrap;html=1;" vertex="1" parent="fdGbSLzudr2lG3SM0UwR-1">
          <mxGeometry y="90" width="140" height="30" as="geometry" />
        </mxCell>
        <mxCell id="fdGbSLzudr2lG3SM0UwR-5" value="Proveedores" style="swimlane;fontStyle=0;childLayout=stackLayout;horizontal=1;startSize=30;horizontalStack=0;resizeParent=1;resizeParentMax=0;resizeLast=0;collapsible=1;marginBottom=0;whiteSpace=wrap;html=1;" vertex="1" parent="1">
          <mxGeometry x="590" y="256" width="140" height="120" as="geometry" />
        </mxCell>
        <mxCell id="fdGbSLzudr2lG3SM0UwR-6" value="Id&lt;div&gt;Nombre&lt;/div&gt;" style="text;strokeColor=none;fillColor=none;align=left;verticalAlign=middle;spacingLeft=4;spacingRight=4;overflow=hidden;points=[[0,0.5],[1,0.5]];portConstraint=eastwest;rotatable=0;whiteSpace=wrap;html=1;" vertex="1" parent="fdGbSLzudr2lG3SM0UwR-5">
          <mxGeometry y="30" width="140" height="30" as="geometry" />
        </mxCell>
        <mxCell id="fdGbSLzudr2lG3SM0UwR-7" value="Dirreccion&lt;div&gt;Nit&lt;/div&gt;" style="text;strokeColor=none;fillColor=none;align=left;verticalAlign=middle;spacingLeft=4;spacingRight=4;overflow=hidden;points=[[0,0.5],[1,0.5]];portConstraint=eastwest;rotatable=0;whiteSpace=wrap;html=1;" vertex="1" parent="fdGbSLzudr2lG3SM0UwR-5">
          <mxGeometry y="60" width="140" height="30" as="geometry" />
        </mxCell>
        <mxCell id="fdGbSLzudr2lG3SM0UwR-8" value="CorreoElectronico&lt;div&gt;Telefono&lt;/div&gt;" style="text;strokeColor=none;fillColor=none;align=left;verticalAlign=middle;spacingLeft=4;spacingRight=4;overflow=hidden;points=[[0,0.5],[1,0.5]];portConstraint=eastwest;rotatable=0;whiteSpace=wrap;html=1;" vertex="1" parent="fdGbSLzudr2lG3SM0UwR-5">
          <mxGeometry y="90" width="140" height="30" as="geometry" />
        </mxCell>
        <mxCell id="fdGbSLzudr2lG3SM0UwR-30" style="edgeStyle=orthogonalEdgeStyle;rounded=0;orthogonalLoop=1;jettySize=auto;html=1;endArrow=ERoneToMany;endFill=0;" edge="1" parent="1" source="fdGbSLzudr2lG3SM0UwR-9" target="fdGbSLzudr2lG3SM0UwR-26">
          <mxGeometry relative="1" as="geometry" />
        </mxCell>
        <mxCell id="fdGbSLzudr2lG3SM0UwR-9" value="Productos" style="swimlane;fontStyle=0;childLayout=stackLayout;horizontal=1;startSize=30;horizontalStack=0;resizeParent=1;resizeParentMax=0;resizeLast=0;collapsible=1;marginBottom=0;whiteSpace=wrap;html=1;" vertex="1" parent="1">
          <mxGeometry x="310" y="56" width="140" height="120" as="geometry" />
        </mxCell>
        <mxCell id="fdGbSLzudr2lG3SM0UwR-10" value="Id" style="text;strokeColor=none;fillColor=none;align=left;verticalAlign=middle;spacingLeft=4;spacingRight=4;overflow=hidden;points=[[0,0.5],[1,0.5]];portConstraint=eastwest;rotatable=0;whiteSpace=wrap;html=1;" vertex="1" parent="fdGbSLzudr2lG3SM0UwR-9">
          <mxGeometry y="30" width="140" height="30" as="geometry" />
        </mxCell>
        <mxCell id="fdGbSLzudr2lG3SM0UwR-11" value="Nombre" style="text;strokeColor=none;fillColor=none;align=left;verticalAlign=middle;spacingLeft=4;spacingRight=4;overflow=hidden;points=[[0,0.5],[1,0.5]];portConstraint=eastwest;rotatable=0;whiteSpace=wrap;html=1;" vertex="1" parent="fdGbSLzudr2lG3SM0UwR-9">
          <mxGeometry y="60" width="140" height="30" as="geometry" />
        </mxCell>
        <mxCell id="fdGbSLzudr2lG3SM0UwR-12" value="Precio&lt;div&gt;Existencias&lt;/div&gt;" style="text;strokeColor=none;fillColor=none;align=left;verticalAlign=middle;spacingLeft=4;spacingRight=4;overflow=hidden;points=[[0,0.5],[1,0.5]];portConstraint=eastwest;rotatable=0;whiteSpace=wrap;html=1;" vertex="1" parent="fdGbSLzudr2lG3SM0UwR-9">
          <mxGeometry y="90" width="140" height="30" as="geometry" />
        </mxCell>
        <mxCell id="fdGbSLzudr2lG3SM0UwR-36" style="edgeStyle=orthogonalEdgeStyle;rounded=0;orthogonalLoop=1;jettySize=auto;html=1;endArrow=ERoneToMany;endFill=0;" edge="1" parent="1" source="fdGbSLzudr2lG3SM0UwR-13" target="fdGbSLzudr2lG3SM0UwR-32">
          <mxGeometry relative="1" as="geometry" />
        </mxCell>
        <mxCell id="fdGbSLzudr2lG3SM0UwR-13" value="Compras" style="swimlane;fontStyle=0;childLayout=stackLayout;horizontal=1;startSize=30;horizontalStack=0;resizeParent=1;resizeParentMax=0;resizeLast=0;collapsible=1;marginBottom=0;whiteSpace=wrap;html=1;" vertex="1" parent="1">
          <mxGeometry x="590" y="426" width="140" height="120" as="geometry" />
        </mxCell>
        <mxCell id="fdGbSLzudr2lG3SM0UwR-14" value="Id&lt;div&gt;Total&lt;/div&gt;" style="text;strokeColor=none;fillColor=none;align=left;verticalAlign=middle;spacingLeft=4;spacingRight=4;overflow=hidden;points=[[0,0.5],[1,0.5]];portConstraint=eastwest;rotatable=0;whiteSpace=wrap;html=1;" vertex="1" parent="fdGbSLzudr2lG3SM0UwR-13">
          <mxGeometry y="30" width="140" height="30" as="geometry" />
        </mxCell>
        <mxCell id="fdGbSLzudr2lG3SM0UwR-15" value="Fecha&lt;div&gt;Estado&lt;/div&gt;" style="text;strokeColor=none;fillColor=none;align=left;verticalAlign=middle;spacingLeft=4;spacingRight=4;overflow=hidden;points=[[0,0.5],[1,0.5]];portConstraint=eastwest;rotatable=0;whiteSpace=wrap;html=1;" vertex="1" parent="fdGbSLzudr2lG3SM0UwR-13">
          <mxGeometry y="60" width="140" height="30" as="geometry" />
        </mxCell>
        <mxCell id="fdGbSLzudr2lG3SM0UwR-16" value="Id_Provedor" style="text;strokeColor=none;fillColor=none;align=left;verticalAlign=middle;spacingLeft=4;spacingRight=4;overflow=hidden;points=[[0,0.5],[1,0.5]];portConstraint=eastwest;rotatable=0;whiteSpace=wrap;html=1;" vertex="1" parent="fdGbSLzudr2lG3SM0UwR-13">
          <mxGeometry y="90" width="140" height="30" as="geometry" />
        </mxCell>
        <mxCell id="fdGbSLzudr2lG3SM0UwR-31" style="edgeStyle=orthogonalEdgeStyle;rounded=0;orthogonalLoop=1;jettySize=auto;html=1;endArrow=ERoneToMany;endFill=0;" edge="1" parent="1" source="fdGbSLzudr2lG3SM0UwR-17" target="fdGbSLzudr2lG3SM0UwR-26">
          <mxGeometry relative="1" as="geometry" />
        </mxCell>
        <mxCell id="fdGbSLzudr2lG3SM0UwR-17" value="Pedidos" style="swimlane;fontStyle=0;childLayout=stackLayout;horizontal=1;startSize=30;horizontalStack=0;resizeParent=1;resizeParentMax=0;resizeLast=0;collapsible=1;marginBottom=0;whiteSpace=wrap;html=1;" vertex="1" parent="1">
          <mxGeometry x="310" y="636" width="140" height="120" as="geometry" />
        </mxCell>
        <mxCell id="fdGbSLzudr2lG3SM0UwR-18" value="Id&lt;div&gt;Total&lt;/div&gt;" style="text;strokeColor=none;fillColor=none;align=left;verticalAlign=middle;spacingLeft=4;spacingRight=4;overflow=hidden;points=[[0,0.5],[1,0.5]];portConstraint=eastwest;rotatable=0;whiteSpace=wrap;html=1;" vertex="1" parent="fdGbSLzudr2lG3SM0UwR-17">
          <mxGeometry y="30" width="140" height="30" as="geometry" />
        </mxCell>
        <mxCell id="fdGbSLzudr2lG3SM0UwR-25" value="Fecha&lt;div&gt;Estado&lt;/div&gt;" style="text;strokeColor=none;fillColor=none;align=left;verticalAlign=middle;spacingLeft=4;spacingRight=4;overflow=hidden;points=[[0,0.5],[1,0.5]];portConstraint=eastwest;rotatable=0;whiteSpace=wrap;html=1;" vertex="1" parent="fdGbSLzudr2lG3SM0UwR-17">
          <mxGeometry y="60" width="140" height="30" as="geometry" />
        </mxCell>
        <mxCell id="fdGbSLzudr2lG3SM0UwR-24" value="Id_Cliente" style="text;strokeColor=none;fillColor=none;align=left;verticalAlign=middle;spacingLeft=4;spacingRight=4;overflow=hidden;points=[[0,0.5],[1,0.5]];portConstraint=eastwest;rotatable=0;whiteSpace=wrap;html=1;" vertex="1" parent="fdGbSLzudr2lG3SM0UwR-17">
          <mxGeometry y="90" width="140" height="30" as="geometry" />
        </mxCell>
        <mxCell id="fdGbSLzudr2lG3SM0UwR-22" style="edgeStyle=orthogonalEdgeStyle;rounded=0;orthogonalLoop=1;jettySize=auto;html=1;exitX=0.497;exitY=1.167;exitDx=0;exitDy=0;exitPerimeter=0;endArrow=ERoneToMany;endFill=0;" edge="1" parent="1" target="fdGbSLzudr2lG3SM0UwR-17">
          <mxGeometry relative="1" as="geometry">
            <mxPoint x="99.57999999999993" y="376" as="sourcePoint" />
            <mxPoint x="290" y="606" as="targetPoint" />
            <Array as="points">
              <mxPoint x="100" y="736" />
            </Array>
          </mxGeometry>
        </mxCell>
        <mxCell id="fdGbSLzudr2lG3SM0UwR-23" style="edgeStyle=orthogonalEdgeStyle;rounded=0;orthogonalLoop=1;jettySize=auto;html=1;endArrow=ERoneToMany;endFill=0;" edge="1" parent="1" source="fdGbSLzudr2lG3SM0UwR-7" target="fdGbSLzudr2lG3SM0UwR-13">
          <mxGeometry relative="1" as="geometry">
            <Array as="points">
              <mxPoint x="570" y="331" />
              <mxPoint x="570" y="496" />
            </Array>
          </mxGeometry>
        </mxCell>
        <mxCell id="fdGbSLzudr2lG3SM0UwR-26" value="Detalle_Pedido" style="swimlane;fontStyle=0;childLayout=stackLayout;horizontal=1;startSize=30;horizontalStack=0;resizeParent=1;resizeParentMax=0;resizeLast=0;collapsible=1;marginBottom=0;whiteSpace=wrap;html=1;" vertex="1" parent="1">
          <mxGeometry x="310" y="336" width="140" height="120" as="geometry" />
        </mxCell>
        <mxCell id="fdGbSLzudr2lG3SM0UwR-27" value="Id&lt;div&gt;CantidadProductos&lt;/div&gt;" style="text;strokeColor=none;fillColor=none;align=left;verticalAlign=middle;spacingLeft=4;spacingRight=4;overflow=hidden;points=[[0,0.5],[1,0.5]];portConstraint=eastwest;rotatable=0;whiteSpace=wrap;html=1;" vertex="1" parent="fdGbSLzudr2lG3SM0UwR-26">
          <mxGeometry y="30" width="140" height="30" as="geometry" />
        </mxCell>
        <mxCell id="fdGbSLzudr2lG3SM0UwR-28" value="SubTotal" style="text;strokeColor=none;fillColor=none;align=left;verticalAlign=middle;spacingLeft=4;spacingRight=4;overflow=hidden;points=[[0,0.5],[1,0.5]];portConstraint=eastwest;rotatable=0;whiteSpace=wrap;html=1;" vertex="1" parent="fdGbSLzudr2lG3SM0UwR-26">
          <mxGeometry y="60" width="140" height="30" as="geometry" />
        </mxCell>
        <mxCell id="fdGbSLzudr2lG3SM0UwR-29" value="Id_Poductos&lt;div&gt;Id_Pedido&lt;/div&gt;" style="text;strokeColor=none;fillColor=none;align=left;verticalAlign=middle;spacingLeft=4;spacingRight=4;overflow=hidden;points=[[0,0.5],[1,0.5]];portConstraint=eastwest;rotatable=0;whiteSpace=wrap;html=1;" vertex="1" parent="fdGbSLzudr2lG3SM0UwR-26">
          <mxGeometry y="90" width="140" height="30" as="geometry" />
        </mxCell>
        <mxCell id="fdGbSLzudr2lG3SM0UwR-32" value="Detalle_Compras" style="swimlane;fontStyle=0;childLayout=stackLayout;horizontal=1;startSize=30;horizontalStack=0;resizeParent=1;resizeParentMax=0;resizeLast=0;collapsible=1;marginBottom=0;whiteSpace=wrap;html=1;" vertex="1" parent="1">
          <mxGeometry x="590" y="666" width="140" height="140" as="geometry" />
        </mxCell>
        <mxCell id="fdGbSLzudr2lG3SM0UwR-33" value="Id&lt;div&gt;CantidadProductos&lt;/div&gt;" style="text;strokeColor=none;fillColor=none;align=left;verticalAlign=middle;spacingLeft=4;spacingRight=4;overflow=hidden;points=[[0,0.5],[1,0.5]];portConstraint=eastwest;rotatable=0;whiteSpace=wrap;html=1;" vertex="1" parent="fdGbSLzudr2lG3SM0UwR-32">
          <mxGeometry y="30" width="140" height="30" as="geometry" />
        </mxCell>
        <mxCell id="fdGbSLzudr2lG3SM0UwR-34" value="SubTotal" style="text;strokeColor=none;fillColor=none;align=left;verticalAlign=middle;spacingLeft=4;spacingRight=4;overflow=hidden;points=[[0,0.5],[1,0.5]];portConstraint=eastwest;rotatable=0;whiteSpace=wrap;html=1;" vertex="1" parent="fdGbSLzudr2lG3SM0UwR-32">
          <mxGeometry y="60" width="140" height="30" as="geometry" />
        </mxCell>
        <mxCell id="fdGbSLzudr2lG3SM0UwR-35" value="Id_Productos&lt;div&gt;Id_Compras&lt;/div&gt;" style="text;strokeColor=none;fillColor=none;align=left;verticalAlign=middle;spacingLeft=4;spacingRight=4;overflow=hidden;points=[[0,0.5],[1,0.5]];portConstraint=eastwest;rotatable=0;whiteSpace=wrap;html=1;" vertex="1" parent="fdGbSLzudr2lG3SM0UwR-32">
          <mxGeometry y="90" width="140" height="50" as="geometry" />
        </mxCell>
        <mxCell id="fdGbSLzudr2lG3SM0UwR-37" style="edgeStyle=orthogonalEdgeStyle;rounded=0;orthogonalLoop=1;jettySize=auto;html=1;endArrow=ERoneToMany;endFill=0;" edge="1" parent="1" source="fdGbSLzudr2lG3SM0UwR-11" target="fdGbSLzudr2lG3SM0UwR-32">
          <mxGeometry relative="1" as="geometry">
            <Array as="points">
              <mxPoint x="500" y="131" />
              <mxPoint x="500" y="676" />
            </Array>
          </mxGeometry>
        </mxCell>
      </root>
    </mxGraphModel>
  </diagram>
</mxfile>
